<svg version="1.2" xmlns="http://www.w3.org/2000/svg" viewBox="0 0 600 600" width="600" height="600">
	<title>anchor-solid</title>
	<style>
		.s0 { fill: #fc3dff;stroke: #000000;stroke-linecap: square;stroke-linejoin: round;stroke-width: 24 } 
	</style>
	<path class="s0" d="m353.1 220c25.9-17.2 42.9-46.6 42.9-80 0-53-43-96-96-96-53 0-96 43-96 96 0 33.4 17 62.8 42.9 80h-10.9c-17.7 0-32 14.3-32 32 0 17.7 14.3 32 32 32h32v208h-48c-53 0-96-43-96-96v-6.1l7 7c9.4 9.4 24.6 9.4 33.9 0 9.3-9.4 9.4-24.6 0-33.9l-55.9-56c-9.4-9.4-24.6-9.4-33.9 0l-56.1 56c-9.4 9.4-9.4 24.6 0 33.9 9.4 9.3 24.6 9.4 33.9 0l7-7v6.1c0 88.4 71.6 160 160 160h80 80c88.4 0 160-71.6 160-160v-6.1l7 7c9.4 9.4 24.6 9.4 33.9 0 9.3-9.4 9.4-24.6 0-33.9l-56-56c-9.4-9.4-24.6-9.4-33.9 0l-56 56c-9.4 9.4-9.4 24.6 0 33.9 9.4 9.3 24.6 9.4 33.9 0l7-7v6.1c0 53-43 96-96 96h-48v-208h32c17.7 0 32-14.3 32-32 0-17.7-14.3-32-32-32h-10.9zm-21.1-80c0 8.5-3.4 16.6-9.4 22.6-6 6-14.1 9.4-22.6 9.4-8.5 0-16.6-3.4-22.6-9.4-6-6-9.4-14.1-9.4-22.6 0-8.5 3.4-16.6 9.4-22.6 6-6 14.1-9.4 22.6-9.4 8.5 0 16.6 3.4 22.6 9.4 6 6 9.4 14.1 9.4 22.6z"/>
</svg>