<svg xmlns="http://www.w3.org/2000/svg" viewBox="0 0 200 200" width="200" height="200"><defs></defs><g>
<g>
	<g>
		<path d="M-0.067226,-0.000156C-0.067226,-0.000156 0.067225,199.999799 0.067225,199.999799 " transform="matrix(1,0,0,1,0,0)" fill="none" stroke="#05ff00" stroke-width="5"/>
		<path d="M-2.556653,200C-2.556653,200 200,200 200,200 " transform="" fill="none" stroke="#ff0000" stroke-width="5"/>
		<path d="M15.520339,23.42561C15.520339,23.42561 15.47046,15.563197 15.47046,15.563197 C15.47046,15.563197 8.995813,5.30228 8.995813,5.30228 C8.995813,5.30228 11.798257,5.284501 11.798257,5.284501 C11.798257,5.284501 17.251527,14.072771 17.251527,14.072771 C17.251527,14.072771 16.109791,14.080014 16.109791,14.080014 C16.109791,14.080014 21.451121,5.223264 21.451121,5.223264 C21.451121,5.223264 24.253565,5.205485 24.253565,5.205485 C24.253565,5.205485 17.935573,15.547558 17.935573,15.547558 C17.935573,15.547558 17.985452,23.409971 17.985452,23.409971 C17.985452,23.409971 15.520339,23.42561 15.520339,23.42561 C15.520339,23.42561 15.520339,23.42561 15.520339,23.42561 Z" transform="matrix(1,0,0,1,0,0)" fill="#ffffff"/>
		<path d="M178.466195,190.404227C178.466195,190.404227 184.76618,181.060133 184.76618,181.060133 C184.76618,181.060133 178.572078,171.874861 178.572078,171.874861 C178.572078,171.874861 181.483835,171.874861 181.483835,171.874861 C181.483835,171.874861 186.222059,178.88955 186.222059,178.88955 C186.222059,178.88955 190.933812,171.874861 190.933812,171.874861 C190.933812,171.874861 193.84557,171.874861 193.84557,171.874861 C193.84557,171.874861 187.677938,181.060133 187.677938,181.060133 C187.677938,181.060133 193.951452,190.404227 193.951452,190.404227 C193.951452,190.404227 191.039694,190.404227 191.039694,190.404227 C191.039694,190.404227 186.222059,183.230715 186.222059,183.230715 C186.222059,183.230715 181.377953,190.404227 181.377953,190.404227 C181.377953,190.404227 178.466195,190.404227 178.466195,190.404227 C178.466195,190.404227 178.466195,190.404227 178.466195,190.404227 Z" transform="" fill="#ffffff"/>
		<path d="M19.339645,179.719669C19.339645,179.719669 28.327554,165.150739 28.327554,165.150739 C28.327554,165.150739 28.731002,165.957634 28.731002,165.957634 C28.731002,165.957634 20.348263,165.957634 20.348263,165.957634 C20.348263,165.957634 20.348263,164.030052 20.348263,164.030052 C20.348263,164.030052 31.286168,164.030052 31.286168,164.030052 C31.286168,164.030052 22.253431,178.598983 22.253431,178.598983 C22.253431,178.598983 21.872397,177.792088 21.872397,177.792088 C21.872397,177.792088 31.174099,177.792088 31.174099,177.792088 C31.174099,177.792088 31.174099,179.719669 31.174099,179.719669 C31.174099,179.719669 19.339645,179.719669 19.339645,179.719669 C19.339645,179.719669 19.339645,179.719669 19.339645,179.719669 Z" transform="matrix(1,0,0,1,0,0)" fill="#ffffff"/>
	</g>
</g></g></svg>