<svg version="1.2" xmlns="http://www.w3.org/2000/svg" viewBox="0 0 474 538" width="474" height="538">
	<title>skull-crossbones-solid</title>
	<style>
		.s0 { fill: #ff2e2e;stroke: #000000;stroke-miterlimit:100;stroke-width: 25 } 
	</style>
	<path class="s0" d="m381 141c0 44.4-25.4 83.5-64 106.4v21.6c0 17.7-14.3 32-32 32h-96c-17.7 0-32-14.3-32-32v-21.6c-38.6-23-64-62.1-64-106.4 0-70.7 64.5-128 144-128 79.5 0 144 57.3 144 128zm-200 48c8.5 0 16.6-3.4 22.6-9.4 6-6 9.4-14.1 9.4-22.6 0-8.5-3.4-16.6-9.4-22.6-6-6-14.1-9.4-22.6-9.4-8.5 0-16.6 3.4-22.6 9.4-6 6-9.4 14.1-9.4 22.6 0 8.5 3.4 16.6 9.4 22.6 6 6 14.1 9.4 22.6 9.4zm144-32c0-8.5-3.4-16.6-9.4-22.6-6-6-14.1-9.4-22.6-9.4-8.5 0-16.6 3.4-22.6 9.4-6 6-9.4 14.1-9.4 22.6 0 8.5 3.4 16.6 9.4 22.6 6 6 14.1 9.4 22.6 9.4 8.5 0 16.6-3.4 22.6-9.4 6-6 9.4-14.1 9.4-22.6zm-308.6 129.7c7.9-15.8 27.1-22.2 42.9-14.3l177.7 88.8 177.7-88.8c15.8-7.9 35-1.5 42.9 14.3 7.9 15.8 1.5 35-14.3 42.9l-134.7 67.4 134.8 67.4c15.8 7.9 22.2 27.1 14.3 42.9-7.9 15.8-27.1 22.2-42.9 14.3l-177.8-88.8-177.7 88.8c-15.8 7.9-35 1.5-42.9-14.3-7.9-15.8-1.5-35 14.3-42.9l134.7-67.4-134.7-67.4c-15.8-7.9-22.2-27.1-14.3-42.9z"/>
</svg>