<svg version="1.2" xmlns="http://www.w3.org/2000/svg" viewBox="0 0 512 512" width="512" height="512">
	<title>compass-drafting-solid</title>
	<style>
		.s0 { fill: #ffffff } 
	</style>
	<path class="s0" d="m333.2 127.4c0 11.5-2.5 22.5-7.1 32.3l42.4 73.3c-19 20.3-43.5 35.5-71.1 43.1l-41.4-71.5-54.6 94.4c17.2 5.5 35.6 8.4 54.7 8.4 56.8 0 107.5-26.2 140.5-67.5 9-11.1 25.1-12.8 36.2-4 11.1 8.8 12.8 25.1 4 36.2-42.5 52.8-107.7 86.8-180.8 86.8-28.4 0-55.8-5.2-80.9-14.6l-45.5 78.6c-3.8 6.5-9.4 11.8-16.1 15.2l-44.6 22.2c-4 2.1-8.7 1.8-12.5-0.5-3.8-2.4-6.1-6.5-6.1-10.9v-44.6c0-6.7 1.8-13.4 5.2-19.3l48.2-83.4c-10.2-9-19.8-18.8-28.3-29.5-8.9-11.1-7.1-27.3 4-36.2 11.1-8.9 27.2-7.1 36.1 4 4.6 5.7 9.5 11.1 14.7 16.2l55.7-96.4c-4.5-9.8-7-20.7-7-32.3 0-42.6 34.5-77.1 77.1-77.1 42.6 0 77.2 34.5 77.2 77.1zm16.8 239.4c26.2-10.3 50.2-24.7 71.5-42.5l35.1 60.7c3.4 5.8 5.2 12.5 5.2 19.3v44.6c0 4.4-2.3 8.5-6.1 10.9-3.8 2.3-8.5 2.6-12.5 0.5l-44.6-22.2c-6.7-3.4-12.3-8.7-16.1-15.2zm-94-213.7c6.8 0 13.3-2.7 18.2-7.5 4.8-4.8 7.5-11.4 7.5-18.2 0-6.8-2.7-13.3-7.5-18.2-4.9-4.8-11.4-7.5-18.2-7.5-6.8 0-13.4 2.7-18.2 7.5-4.8 4.9-7.5 11.4-7.5 18.2 0 6.8 2.7 13.4 7.5 18.2 4.8 4.8 11.4 7.5 18.2 7.5z"/>
</svg>