<svg version="1.2" xmlns="http://www.w3.org/2000/svg" viewBox="0 0 538 538" width="538" height="538">
	<title>octopus-deploy-brands-solid</title>
	<style>
		.s0 { fill: #ff2e2e;stroke: #000000;stroke-linejoin: round;stroke-width: 25 } 
	</style>
	<path class="s0" d="m468.6 362.2c-45.9-39.1-36.7-77.9-16.1-128.1 35.7-87.1-23.5-187-109.6-212.8-92.9-27.9-195.6 16-230.2 108.8q-3.3 8.8-5.6 17.8-2.3 9.1-3.7 18.4-1.4 9.2-1.8 18.6-0.4 9.4 0.1 18.7c1.7 29.5 14.7 53 24.1 80.3 17.2 50.2-28.1 92.7-66.7 117.6-46.8 30.2-36.3 39.9-8.4 41.9 23.4 1.7 44.5-4.5 65.3-15 9.2-4.6 40.7-18.9 45.1-28.6-12.2 26.6-37 72.7-21.5 102.1 19.1 36.2 67.1-31.8 76.7-45.8 8.6-12.6 43-81.3 63.6-46.9 18.9 31.4 8.6 76.4 35.7 104.6 32.9 34.2 51.2-18.3 51.4-44.2 0.2-16.4-6.1-95.9 29.9-59.9 21.5 21.3 53 71.1 88.7 66.9 38.7-4.5-22.1-68-28.3-78.7 5.4 4.3 53.7 34.1 53.8 9.5 0.1-18.7-30.1-34.6-42.5-45.2z"/>
</svg>