<svg version="1.2" xmlns="http://www.w3.org/2000/svg" viewBox="0 0 552 552" width="552" height="552">
	<title>plane-solid</title>
	<style>
		.s0 { fill: #00ff11;stroke: #000000;stroke-miterlimit:100;stroke-width: 25 } 
	</style>
	<path class="s0" d="m417.7 63.1c26.2-22 90.4-38 112.9-11.2 23.2 27.6-4.4 87.2-30.6 109.2l-89.3 75 36 199.3c2.1 11.4-2.1 22.8-10.9 30.2l-43.1 36.2c-8.1 6.8-20.5 3.9-24.9-5.8l-72.7-162.9-78.8 66.1 3.9 71.9c0.3 4.9-1.8 9.9-5.6 13.1l-32.2 27c-6 5-14.8 4.2-19.7-1.7-0.9-1-1.6-2.2-2.2-3.4l-46.6-104.5-94.9-64.1c-1.2-0.8-2.1-1.7-2.9-2.7-5-6-4.2-14.8 1.7-19.7l32.2-27c3.8-3.2 9.1-4.5 13.9-3.4l70.1 16.4 78.9-66.1-147.9-100c-8.8-5.9-9.5-18.6-1.4-25.5l43.1-36.1c8.8-7.4 20.9-9.4 31.6-5.5l190.1 70.1z"/>
</svg>