<svg version="1.2" xmlns="http://www.w3.org/2000/svg" viewBox="0 0 512 512" width="512" height="512">
	<title>ruler-solid</title>
	<style>
		.s0 { fill: #ffffff } 
	</style>
	<path class="s0" d="m188.9 460.5c-16 16-42.1 16-58.3 0l-79.1-79.2c-16-16.1-16-42.2 0-58.3l43.6-43.6 41.2 41.3c5.3 5.3 14.1 5.3 19.4 0 5.3-5.4 5.3-14.1 0-19.4l-41.2-41.3 35.5-35.5 41.2 41.2c5.4 5.3 14.1 5.3 19.4 0 5.4-5.3 5.4-14.1 0-19.4l-41.2-41.2 35.6-35.6 41.2 41.3c5.3 5.3 14.1 5.3 19.4 0 5.3-5.4 5.3-14.1 0-19.5l-41.2-41.2 35.5-35.5 41.3 41.2c5.3 5.3 14 5.3 19.4 0 5.3-5.3 5.3-14.1 0-19.4l-41.3-41.2 43.6-43.6c16-16 42.1-16 58.3 0l79.1 79.1c16 16.1 16 42.2 0 58.3z"/>
</svg>